<svg width="166" height="88" viewBox="0 0 166 88" fill="none" xmlns="http://www.w3.org/2000/svg">
    <g clip-path="url(#clip0_1408_3030)">
    <mask id="mask0_1408_3030" style="mask-type:luminance" maskUnits="userSpaceOnUse" x="0" y="0" width="166" height="88">
    <path d="M165.689 0.991211H0V87.3572H165.689V0.991211Z" fill="white"></path>
    </mask>
    <g mask="url(#mask0_1408_3030)">
    <path d="M25.2827 41.6585C25.2827 41.1882 25.0998 40.7505 24.7666 40.4173C24.0937 39.7444 22.9504 39.7444 22.284 40.4173L3.46906 59.2388C2.7831 59.9247 2.7831 61.0353 3.46906 61.7213C3.80224 62.0545 4.23995 62.2374 4.71033 62.2374C5.1807 62.2374 5.61841 62.0545 5.95159 61.7213L24.7666 42.8998C25.0998 42.5666 25.2827 42.1224 25.2827 41.6585Z" fill="#342E31"></path>
    <path d="M29.9015 47.6171C29.5814 47.297 29.1306 47.1206 28.6602 47.1206C28.1899 47.1206 27.7391 47.3035 27.419 47.6171L12.2102 62.8324C11.877 63.1656 11.6941 63.6033 11.6941 64.0737C11.6941 64.5441 11.877 64.9818 12.2102 65.3149C12.5434 65.6481 12.9811 65.8311 13.4515 65.8311C13.9218 65.8311 14.3595 65.6481 14.6927 65.3149L29.9015 50.0996C30.5875 49.4137 30.5875 48.3031 29.9015 47.6171Z" fill="#342E31"></path>
    <path d="M48.8536 40.3855C48.1938 39.7257 47.0309 39.7257 46.3711 40.3855L25.557 60.9774C25.2238 61.3106 25.0409 61.7483 25.0409 62.2187C25.0409 62.6891 25.2238 63.1268 25.557 63.46C25.8902 63.7932 26.3279 63.9761 26.7983 63.9761C27.2686 63.9761 27.7063 63.7932 28.0395 63.4665L48.8536 42.8746C49.1868 42.5414 49.3697 42.1037 49.3697 41.6333C49.3697 41.1629 49.1868 40.7252 48.8536 40.392V40.3855Z" fill="#342E31"></path>
    <path d="M66.6887 79.681C65.9178 79.093 64.8987 78.7925 63.6313 78.7925H61.8739V87.207H63.8861C64.9836 87.207 65.9178 86.8868 66.6887 86.2466C67.4596 85.6064 67.845 84.5088 67.845 82.954C67.845 81.3991 67.4596 80.2624 66.6887 79.6744V79.681ZM65.8786 85.5737C65.3886 86.0572 64.7549 86.2923 63.971 86.2923H63.0302V79.7202H63.8861C64.4152 79.7202 64.8725 79.7986 65.2645 79.9554C65.6565 80.1121 65.9766 80.4323 66.2314 80.9092C66.4862 81.3861 66.6103 82.0655 66.6103 82.954C66.6103 84.2149 66.3686 85.0903 65.8786 85.5672V85.5737Z" fill="#342E31"></path>
    <path d="M73.8293 85.7111V82.7647C73.8293 82.0787 73.6398 81.5561 73.2674 81.1837C72.895 80.8113 72.3267 80.6284 71.5688 80.6284C70.8829 80.6284 70.1447 80.7721 69.3476 81.0661L69.6285 81.8827C70.3145 81.6541 70.8894 81.543 71.3663 81.543C71.8432 81.543 72.1633 81.641 72.3789 81.837C72.6011 82.033 72.7056 82.3597 72.7056 82.817V83.2939H71.7191C70.8175 83.2939 70.1185 83.4768 69.622 83.8426C69.132 84.2085 68.8838 84.7377 68.8838 85.4171C68.8838 85.9985 69.0667 86.4624 69.4326 86.8217C69.7984 87.181 70.3014 87.3574 70.9351 87.3574C71.7844 87.3574 72.4181 87.0373 72.8558 86.3905C72.9538 86.6976 73.1041 86.9262 73.3066 87.0765C73.5091 87.2202 73.777 87.3182 74.1102 87.3574L74.365 86.5734C74.1886 86.5081 74.0514 86.4101 73.9599 86.286C73.8684 86.1618 73.8227 85.9659 73.8227 85.7045L73.8293 85.7111ZM72.7056 85.5151C72.3397 86.1815 71.8367 86.5146 71.1899 86.5146C70.8241 86.5146 70.5432 86.4166 70.3602 86.2206C70.1708 86.0247 70.0793 85.7372 70.0793 85.3518C70.0793 84.4698 70.6738 84.0321 71.8628 84.0321H72.7056V85.5085V85.5151Z" fill="#342E31"></path>
    <path d="M77.8535 80.9941C77.5595 81.2358 77.3309 81.6016 77.1545 82.0851L77.0434 80.7785H76.0765V87.2135H77.2002V83.5354C77.3374 82.9148 77.5269 82.4575 77.7751 82.17C78.0168 81.876 78.3435 81.7323 78.742 81.7323C78.9184 81.7323 79.1078 81.7584 79.3038 81.8042L79.5129 80.7066C79.3169 80.6544 79.1078 80.6348 78.8792 80.6348C78.4872 80.6348 78.1475 80.7589 77.8535 81.0006V80.9941Z" fill="#342E31"></path>
    <path d="M84.3735 79.2237C84.576 79.2237 84.7458 79.1584 84.883 79.0212C85.0202 78.884 85.0856 78.7207 85.0856 78.5247C85.0856 78.3287 85.0202 78.1654 84.883 78.0282C84.7458 77.891 84.5825 77.8257 84.3735 77.8257C84.1644 77.8257 84.0142 77.891 83.877 78.0282C83.7398 78.1654 83.6744 78.3287 83.6744 78.5247C83.6744 78.7207 83.7398 78.884 83.877 79.0212C84.0142 79.1584 84.1775 79.2237 84.3735 79.2237Z" fill="#342E31"></path>
    <path d="M81.819 79.2237C82.015 79.2237 82.1783 79.1584 82.3155 79.0212C82.4527 78.884 82.5181 78.7207 82.5181 78.5247C82.5181 78.3287 82.4527 78.1654 82.3155 78.0282C82.1783 77.891 82.015 77.8257 81.819 77.8257C81.623 77.8257 81.4466 77.891 81.3095 78.0282C81.1723 78.1654 81.1069 78.3287 81.1069 78.5247C81.1069 78.7207 81.1723 78.884 81.3095 79.0212C81.4466 79.1584 81.61 79.2237 81.819 79.2237Z" fill="#342E31"></path>
    <path d="M84.3996 85.3646C83.9489 86.1029 83.4132 86.4753 82.786 86.4753C82.4332 86.4753 82.185 86.3838 82.0282 86.2009C81.8714 86.0179 81.793 85.7044 81.793 85.2667V80.772H80.6693V85.3908C80.6693 86.018 80.8261 86.5014 81.1462 86.8476C81.4663 87.1874 81.904 87.3637 82.4659 87.3637C82.9232 87.3637 83.3086 87.2723 83.6287 87.0894C83.9489 86.9064 84.2298 86.6125 84.4715 86.2139L84.5564 87.2135H85.5233V80.7785H84.3996V85.3712V85.3646Z" fill="#342E31"></path>
    <path d="M90.7301 80.6282C89.9788 80.6282 89.3712 80.9483 88.9074 81.582V78.0542L87.7837 78.1914V87.22H88.7702L88.8812 86.5144C89.3451 87.0828 89.9134 87.3702 90.5929 87.3702C91.109 87.3702 91.5532 87.233 91.9387 86.9456C92.3241 86.6647 92.6116 86.2727 92.8206 85.7631C93.0297 85.2535 93.1277 84.6656 93.1277 83.9992C93.1277 82.9409 92.9121 82.1177 92.4809 81.5232C92.0497 80.9352 91.4683 80.6347 90.7366 80.6347L90.7301 80.6282ZM91.4944 85.8611C91.2135 86.2662 90.8215 86.4687 90.325 86.4687C90.0506 86.4687 89.7828 86.3903 89.5345 86.2335C89.2863 86.0767 89.0772 85.8676 88.9074 85.5998V82.5228C89.3385 81.8564 89.8416 81.5232 90.41 81.5232C90.8934 81.5232 91.2592 81.7192 91.5206 82.1046C91.7819 82.4901 91.9125 83.1238 91.9125 83.9927C91.9125 84.8616 91.7753 85.4626 91.4944 85.8676V85.8611Z" fill="#342E31"></path>
    <path d="M97.1911 80.6284C96.6489 80.6284 96.1719 80.7721 95.7669 81.0661C95.3619 81.3601 95.0548 81.7652 94.8392 82.2813C94.6236 82.7974 94.5126 83.3919 94.5126 84.0582C94.5126 85.0839 94.7608 85.8875 95.2639 86.4754C95.7669 87.0634 96.4659 87.3574 97.361 87.3574C98.1776 87.3574 98.9223 87.0895 99.6083 86.5538L99.1183 85.8809C98.8309 86.0769 98.563 86.2206 98.3017 86.3056C98.0404 86.397 97.7529 86.4428 97.4459 86.4428C96.9559 86.4428 96.5574 86.2729 96.2503 85.9397C95.9433 85.6065 95.7604 85.0839 95.7146 84.3783H99.8173C99.8304 84.1824 99.8435 83.9929 99.8435 83.8034C99.8435 82.8104 99.6148 82.033 99.1575 81.4712C98.7002 80.9093 98.0469 80.6284 97.1911 80.6284ZM98.7329 83.5487H95.7146C95.793 82.1963 96.2961 81.5234 97.2172 81.5234C97.7203 81.5234 98.0992 81.6868 98.354 82.0265C98.6088 82.3597 98.7329 82.8431 98.7329 83.4768V83.5487Z" fill="#342E31"></path>
    <path d="M103.345 80.9941C103.051 81.2358 102.823 81.6016 102.646 82.0851L102.535 80.7785H101.568V87.2135H102.692V83.5354C102.829 82.9148 103.019 82.4575 103.267 82.17C103.509 81.876 103.835 81.7323 104.234 81.7323C104.41 81.7323 104.6 81.7584 104.796 81.8042L105.005 80.7066C104.809 80.6544 104.6 80.6348 104.371 80.6348C103.979 80.6348 103.639 80.7589 103.345 81.0006V80.9941Z" fill="#342E31"></path>
    <path d="M111.178 80.9941C110.884 81.2358 110.656 81.6016 110.479 82.0851L110.368 80.7785H109.401V87.2135H110.525V83.5354C110.662 82.9148 110.852 82.4575 111.1 82.17C111.342 81.876 111.668 81.7323 112.067 81.7323C112.243 81.7323 112.433 81.7584 112.629 81.8042L112.838 80.7066C112.642 80.6544 112.433 80.6348 112.204 80.6348C111.812 80.6348 111.472 80.7589 111.178 81.0006V80.9941Z" fill="#342E31"></path>
    <path d="M115.902 80.6284C115.359 80.6284 114.882 80.7721 114.477 81.0661C114.072 81.3601 113.765 81.7652 113.55 82.2813C113.334 82.7974 113.223 83.3919 113.223 84.0582C113.223 85.0839 113.471 85.8875 113.974 86.4754C114.477 87.0634 115.176 87.3574 116.071 87.3574C116.888 87.3574 117.633 87.0895 118.319 86.5538L117.829 85.8809C117.541 86.0769 117.273 86.2206 117.012 86.3056C116.751 86.397 116.463 86.4428 116.156 86.4428C115.666 86.4428 115.268 86.2729 114.961 85.9397C114.654 85.6065 114.471 85.0839 114.425 84.3783H118.528C118.541 84.1824 118.554 83.9929 118.554 83.8034C118.554 82.8104 118.325 82.033 117.868 81.4712C117.411 80.9093 116.757 80.6284 115.902 80.6284ZM117.443 83.5487H114.425C114.503 82.1963 115.007 81.5234 115.928 81.5234C116.431 81.5234 116.81 81.6868 117.064 82.0265C117.319 82.3597 117.443 82.8431 117.443 83.4768V83.5487Z" fill="#342E31"></path>
    <path d="M124.153 81.4191C123.656 80.8899 123.075 80.6286 122.415 80.6286C121.899 80.6286 121.455 80.7723 121.069 81.0597C120.684 81.3472 120.39 81.7522 120.187 82.2618C119.985 82.7779 119.88 83.3593 119.88 84.0192C119.88 85.0383 120.096 85.8484 120.52 86.4494C120.945 87.0505 121.546 87.351 122.31 87.351C122.702 87.351 123.055 87.2595 123.375 87.0766C123.695 86.8937 123.957 86.6389 124.166 86.3123L124.277 87.2073H125.263V78.1787L124.14 78.0415V81.4125L124.153 81.4191ZM124.153 85.5087C123.924 85.8288 123.689 86.064 123.447 86.2208C123.205 86.3776 122.911 86.456 122.565 86.456C122.095 86.456 121.729 86.2535 121.481 85.8419C121.226 85.4368 121.102 84.8162 121.102 83.9865C121.102 83.1568 121.239 82.5427 121.513 82.1311C121.788 81.713 122.173 81.5105 122.67 81.5105C122.97 81.5105 123.245 81.5824 123.48 81.7261C123.722 81.8698 123.944 82.0789 124.159 82.3533V85.5022L124.153 85.5087Z" fill="#342E31"></path>
    <path d="M129.745 80.6284C129.203 80.6284 128.726 80.7721 128.321 81.0661C127.916 81.3601 127.609 81.7652 127.393 82.2813C127.177 82.7974 127.066 83.3919 127.066 84.0582C127.066 85.0839 127.315 85.8875 127.818 86.4754C128.321 87.0634 129.02 87.3574 129.915 87.3574C130.731 87.3574 131.476 87.0895 132.162 86.5538L131.672 85.8809C131.385 86.0769 131.117 86.2206 130.856 86.3056C130.594 86.397 130.307 86.4428 130 86.4428C129.51 86.4428 129.111 86.2729 128.804 85.9397C128.497 85.6065 128.314 85.0839 128.268 84.3783H132.371C132.384 84.1824 132.397 83.9929 132.397 83.8034C132.397 82.8104 132.169 82.033 131.711 81.4712C131.254 80.9093 130.601 80.6284 129.745 80.6284ZM131.287 83.5487H128.268C128.347 82.1963 128.85 81.5234 129.771 81.5234C130.274 81.5234 130.653 81.6868 130.908 82.0265C131.163 82.3597 131.287 82.8431 131.287 83.4768V83.5487Z" fill="#342E31"></path>
    <path d="M137.16 80.6284C136.755 80.6284 136.383 80.7264 136.043 80.9224C135.703 81.1184 135.422 81.3862 135.194 81.726L135.096 80.7721H134.129V87.2071H135.252V82.6406C135.481 82.2747 135.723 81.9938 135.984 81.7978C136.245 81.6018 136.546 81.5038 136.886 81.5038C137.225 81.5038 137.474 81.5953 137.643 81.7848C137.813 81.9742 137.898 82.2943 137.898 82.7516V87.2137H139.022V82.5948C139.022 81.9807 138.859 81.5038 138.525 81.1511C138.192 80.7983 137.735 80.6284 137.153 80.6284H137.16Z" fill="#342E31"></path>
    <path d="M147.436 80.6281C146.672 80.6281 146.038 80.9744 145.529 81.6669V78.0737L144.405 78.1979V87.2134H145.529V82.6338C145.757 82.2744 145.999 82 146.26 81.8041C146.522 81.6081 146.816 81.5101 147.155 81.5101C147.495 81.5101 147.743 81.6015 147.92 81.791C148.096 81.9805 148.181 82.3006 148.181 82.7579V87.2199H149.305V82.6011C149.305 81.987 149.141 81.5101 148.808 81.1573C148.475 80.8045 148.018 80.6347 147.436 80.6347V80.6281Z" fill="#342E31"></path>
    <path d="M152.055 77.6816C151.826 77.6816 151.637 77.7535 151.493 77.9038C151.35 78.0475 151.271 78.2304 151.271 78.4525C151.271 78.6747 151.343 78.851 151.493 78.9948C151.637 79.1385 151.826 79.2104 152.055 79.2104C152.284 79.2104 152.48 79.1385 152.63 78.9948C152.774 78.851 152.852 78.6681 152.852 78.4525C152.852 78.2369 152.78 78.0475 152.63 77.9038C152.486 77.76 152.29 77.6816 152.055 77.6816Z" fill="#342E31"></path>
    <path d="M152.623 80.772H151.5V87.207H152.623V80.772Z" fill="#342E31"></path>
    <path d="M156.354 86.4297C156.21 86.4297 156.106 86.3905 156.04 86.3055C155.981 86.2271 155.949 86.0965 155.949 85.9136V78.0479L154.825 78.185V85.9462C154.825 86.397 154.943 86.7432 155.184 86.9915C155.426 87.2398 155.753 87.3639 156.171 87.3639C156.498 87.3639 156.791 87.292 157.066 87.1418L156.772 86.3578C156.648 86.4035 156.511 86.4297 156.354 86.4297Z" fill="#342E31"></path>
    <path d="M159.64 79.8836C159.64 79.5635 159.712 79.3349 159.862 79.1781C160.012 79.0213 160.254 78.9494 160.594 78.9494C160.979 78.9494 161.352 79.0278 161.717 79.1911L162.07 78.3745C161.802 78.2634 161.554 78.1785 161.319 78.1262C161.084 78.074 160.822 78.0479 160.528 78.0479C159.895 78.0479 159.398 78.2177 159.045 78.5574C158.693 78.8971 158.516 79.3414 158.516 79.8967V80.7786H157.366V81.6475H158.516V87.2202H159.64V81.6475H161.084L161.208 80.7786H159.646V79.8836H159.64Z" fill="#342E31"></path>
    <path d="M165.258 86.1749C164.938 86.3447 164.657 86.4296 164.402 86.4296C164.128 86.4296 163.925 86.3578 163.808 86.201C163.69 86.0507 163.632 85.809 163.632 85.4758V81.641H165.036L165.16 80.7721H163.632V79.1846L162.508 79.3218V80.7786H161.384V81.6475H162.508V85.5346C162.508 86.1291 162.658 86.5864 162.965 86.9C163.272 87.2136 163.697 87.3704 164.239 87.3704C164.781 87.3704 165.258 87.2267 165.683 86.9327L165.258 86.1879V86.1749Z" fill="#342E31"></path>
    <path d="M56.5626 35.4855L70.1446 21.9035C72.3985 19.7411 73.777 17.2977 74.4172 14.8675C76.2138 7.99478 72.013 1.2201 64.2519 1.2201C64.1212 1.21356 63.984 1.20703 63.8468 1.20703C61.2271 1.20703 57.6928 2.93174 55.2952 5.61026C52.8845 2.91214 49.4612 1.20703 46.8415 1.20703C46.7043 1.20703 46.5671 1.20703 46.4299 1.2201C35.9249 1.2201 32.2403 14.2534 40.3477 22.0668L52.9237 34.5905L53.8383 35.4921C54.2172 35.8645 54.7072 36.0539 55.1972 36.0539C55.6871 36.0539 56.1836 35.8645 56.5626 35.4855Z" fill="#E03020"></path>
    <path d="M88.7374 55.0321H77.0957L87.3198 32.0752H82.6683L70.7717 58.5076V58.8539H88.7374V65.8507H92.9447V46.4673H88.7374V55.0321Z" fill="#342E31"></path>
    <path d="M113.02 45.4872C111.662 44.749 110.133 44.357 108.454 44.259L117.92 32.4213V32.0815H97.9946V35.9491H110.479L101.816 46.8199V47.2119C102.241 47.1466 102.692 47.1009 103.162 47.0617C103.633 47.029 104.214 47.0159 104.9 47.0159C106.729 47.0159 108.304 47.3034 109.623 47.8717C110.943 48.4401 111.975 49.2502 112.707 50.2955C113.439 51.3408 113.811 52.582 113.811 54.0193C113.811 55.7179 113.373 57.1747 112.491 58.4029C111.609 59.6246 110.362 60.5719 108.748 61.2448C107.134 61.9111 105.181 62.2508 102.901 62.2508C102.019 62.2508 101.235 62.2247 100.549 62.179C99.8631 62.1267 99.262 62.0548 98.7394 61.9568V65.7721C99.2947 65.8701 99.9676 65.9485 100.771 66.0138C101.568 66.0792 102.326 66.1118 103.045 66.1118C106.148 66.1118 108.813 65.6218 111.048 64.6419C113.282 63.662 115.013 62.2704 116.235 60.4543C117.456 58.6446 118.07 56.4953 118.07 54.0193C118.07 52.1247 117.62 50.4457 116.725 48.9758C115.823 47.5059 114.595 46.3496 113.027 45.5003L113.02 45.4872Z" fill="#342E31"></path>
    <path d="M122.591 61.1206C121.84 61.1206 121.219 61.3689 120.73 61.8719C120.24 62.3749 119.998 62.976 119.998 63.675C119.998 64.374 120.24 65.0143 120.73 65.5173C121.219 66.0203 121.84 66.2686 122.591 66.2686C123.343 66.2686 123.924 66.0203 124.414 65.5173C124.904 65.0143 125.146 64.4002 125.146 63.675C125.146 62.9498 124.904 62.3749 124.414 61.8719C123.924 61.3689 123.317 61.1206 122.591 61.1206Z" fill="#342E31"></path>
    <path d="M140.583 62.1789C137.937 62.1789 135.834 61.4864 134.266 60.1014C132.698 58.7164 131.914 56.8153 131.914 54.3981C131.914 52.8955 132.28 51.5824 133.018 50.4587C133.75 49.335 134.782 48.4596 136.102 47.839C137.421 47.2183 138.93 46.9113 140.629 46.9113C141.086 46.9113 141.544 46.944 142.001 47.0093C142.458 47.0746 142.883 47.14 143.275 47.2053V43.3378C142.915 43.2398 142.465 43.1614 141.929 43.096C141.393 43.0307 140.845 42.998 140.289 42.998C137.741 42.998 135.533 43.475 133.658 44.4157C131.783 45.363 130.313 46.6892 129.248 48.4074C128.19 50.119 127.654 52.1181 127.654 54.4046C127.654 56.6912 128.171 58.8536 129.196 60.5979C130.222 62.3422 131.685 63.7076 133.58 64.6875C135.474 65.6675 137.676 66.1574 140.191 66.1574C140.747 66.1574 141.315 66.1248 141.903 66.0595C142.491 65.9941 142.981 65.9092 143.373 65.8177V61.9045C142.915 62.0351 142.452 62.1135 141.975 62.1462C141.498 62.1789 141.034 62.1919 140.577 62.1919L140.583 62.1789Z" fill="#342E31"></path>
    <path d="M163.592 44.6318C162.318 43.2468 160.554 42.5543 158.307 42.5543C156.772 42.5543 155.367 42.9463 154.1 43.7302C153.316 44.2137 152.689 44.7951 152.192 45.4484V30.6055H148.083V65.8509H152.192V49.1591C152.65 48.3098 153.329 47.6435 154.224 47.1535C155.119 46.6635 156.073 46.4218 157.085 46.4218C158.457 46.4218 159.516 46.8399 160.267 47.6696C161.018 48.4993 161.391 49.6687 161.391 51.1713V65.8574H165.5V50.2893C165.5 47.9048 164.866 46.0233 163.592 44.6383V44.6318Z" fill="#342E31"></path>
    <path d="M61.9065 36.3933V65.8505H66.166V32.1338L61.9065 36.3933Z" fill="#342E31"></path>
    <path d="M29.2874 22.3151C29.1306 22.1583 28.915 22.093 28.621 22.0864L15.0781 25.1112C13.8238 25.379 12.7459 25.5097 11.7855 25.5097C9.83215 25.5097 8.3557 24.9544 7.40842 23.8569L7.36922 23.8111L31.3779 12.4699C31.3322 11.111 31.4432 9.75869 31.7307 8.41943L3.52129 21.7271C3.22077 21.8708 2.99865 22.1191 2.89412 22.4392C2.7896 22.7659 2.82226 23.1056 2.97905 23.4061C5.00428 27.1364 8.15318 29.1094 12.0926 29.1094C13.3796 29.1094 14.7384 28.8938 16.1299 28.4691L24.0348 26.3198L0.509589 49.8516C-0.176373 50.5375 -0.176373 51.6481 0.509589 52.3341C0.842769 52.6673 1.28048 52.8502 1.75085 52.8502C2.22123 52.8502 2.65894 52.6673 2.99212 52.3341L30.5548 24.7649C30.7115 24.6016 30.7965 24.3926 30.7965 24.1639C30.7965 23.9418 30.705 23.7262 30.5482 23.5694L29.2874 22.3216V22.3151Z" fill="#342E31"></path>
    </g>
    </g>
    <defs>
    <clipPath id="clip0_1408_3030">
    <rect width="165.938" height="86.8886" fill="white" transform="translate(0 0.991211)"></rect>
    </clipPath>
    </defs>
    </svg>