<svg width="159" height="159" viewBox="0 0 159 159" fill="none" xmlns="http://www.w3.org/2000/svg">
<g clip-path="url(#clip0_104_2)">
<path d="M79.5 158.998C38.0165 158.998 3.95106 127.222 0.319794 86.6822H158.68C155.049 127.224 120.983 158.998 79.5 158.998Z" fill="white"/>
<path d="M158.68 86.6839C158.892 84.3178 159 81.9203 159 79.4983C158.998 35.5927 123.406 0 79.5 0C35.5945 0 0 35.5927 0 79.4983C0 81.9203 0.108344 84.3161 0.319789 86.6822" fill="#C71010"/>
<path d="M112.575 79.6765H141.006V73.2126H121.151L140.596 45.3699V38.6735H113.34V45.1322H131.841L112.576 72.9784V79.6748L112.575 79.6765ZM72.3965 79.6765H80.2654V49.0117H80.3842L96.0679 79.6765H106.114V38.6753H98.24V69.3384H98.1247L82.5004 38.6753H72.3982L72.3965 79.6765ZM17.356 79.6765H25.2267V45.9571L25.3437 45.84L36.3861 79.6765H44.2585L55.3009 45.84H55.4179V79.6765H63.2903V38.6753H50.1318L40.3808 69.749H40.2655L30.5128 38.6753H17.356V79.6765Z" fill="white"/>
<path d="M104.145 20.0017V21.1236H104.113C103.521 20.1799 102.673 19.8112 101.583 19.8112C99.119 19.8112 98.0967 22.1004 98.0967 24.0856C98.0967 26.2961 99.0229 28.2463 101.457 28.2463C102.658 28.2463 103.619 27.6382 104.021 26.9357H104.05C104.05 28.3581 103.939 30.1388 101.569 30.1388C100.894 30.1388 99.8215 29.7719 99.1662 29.4154L98.9897 31.2432C100.014 31.6731 100.991 31.8007 101.84 31.8007C105.296 31.8007 106.193 29.6897 106.193 27.4477V20.0034L104.145 20.0017ZM102.158 26.5827C100.926 26.5827 100.332 25.2057 100.332 24.0838C100.332 22.8169 100.797 21.4731 102.256 21.4731C103.505 21.4731 104.049 22.6264 104.049 24.0349C104.049 25.4136 103.505 26.5827 102.158 26.5827ZM88.8403 28.2446H90.9827V24.2096C90.9827 23.1541 91.32 21.4731 92.8752 21.4731C94.2505 21.4731 94.268 22.8344 94.268 23.8427V28.2428H96.4104V23.0406C96.4104 21.1847 95.5663 19.8095 93.6127 19.8095C92.489 19.8095 91.5768 20.1782 90.9041 21.1218H90.8709V20.0017H88.8403V28.2446ZM86.628 20.0017H84.4838V24.0366C84.4838 25.0921 84.1483 26.7732 82.593 26.7732C81.2178 26.7732 81.2003 25.4119 81.2003 24.4053V20.0017H79.0579V25.2057C79.0579 27.0615 79.9037 28.4368 81.8556 28.4368C82.9775 28.4368 83.9071 27.9248 84.5624 27.1262H84.5956V28.2446H86.628V20.0017ZM73.5341 25.7649C73.5341 27.3988 74.4602 28.4368 76.1396 28.4368C76.7809 28.4368 77.2789 28.3721 77.7245 28.2446L77.6616 26.5513C77.438 26.6945 77.0692 26.7749 76.6848 26.7749C75.8687 26.7749 75.6782 26.1179 75.6782 25.4136V21.5709H77.583V20.0034H75.6782V17.667L73.5341 18.3556V20.0034H71.9491V21.5709H73.5341V25.7649ZM67.3864 28.2446H69.5288V21.5709H71.4039V20.0034H69.5288V18.9794C69.5288 18.3363 69.7543 17.7142 70.476 17.7142C70.9391 17.7142 71.2099 17.8907 71.4039 18.0008L71.5786 16.2254C71.1645 16.1275 70.5529 16.0489 70.0112 16.0489C68.3143 16.0489 67.3864 17.2005 67.3864 18.8501V20.0034H65.8032V21.5709H67.3864V28.2446ZM62.1999 18.4954H64.3441V16.4473H62.1999V18.4954ZM62.1999 28.2446H64.3441V20.0017H62.1999V28.2446ZM56.6272 25.7649C56.6272 27.3988 57.5568 28.4368 59.2362 28.4368C59.8758 28.4368 60.372 28.3721 60.8211 28.2446L60.7565 26.5513C60.5328 26.6945 60.1641 26.7749 59.7796 26.7749C58.9653 26.7749 58.7731 26.1179 58.7731 25.4136V21.5709H60.6778V20.0034H58.7731V17.667L56.6272 18.3556V20.0034H55.044V21.5709H56.6272V25.7649ZM53.4258 17.2791C52.6097 17.0082 51.7133 16.8807 50.7539 16.8807C48.7827 16.8807 46.8483 17.7929 46.8483 20.29C46.8483 23.9894 51.7465 23.1087 51.7465 25.2389C51.7465 26.2472 50.6106 26.6806 49.7613 26.6806C48.8788 26.6806 47.9981 26.4062 47.231 25.9903L47.0248 28.0069C48.1274 28.2795 48.6691 28.4385 49.8906 28.4385C52.1484 28.4385 54.0811 27.5106 54.0811 25.0624C54.0811 21.3158 49.1829 22.1319 49.1829 20.1922C49.1829 18.9759 50.1772 18.6404 50.9461 18.6404C51.7307 18.6404 52.5154 18.8169 53.2196 19.121L53.4258 17.2791Z" fill="white"/>
<path d="M132.608 129.42C131.832 129.855 130.965 130.228 129.959 130.228C128.671 130.228 127.771 129.497 127.678 128.211H133.193C133.193 125.42 132.36 123.393 129.398 123.393C126.918 123.393 125.695 125.298 125.695 127.608C125.695 130.228 127.227 131.744 129.862 131.744C130.979 131.744 131.848 131.528 132.606 131.11L132.608 129.42ZM127.68 126.787C127.772 125.716 128.361 124.91 129.523 124.91C130.686 124.91 131.152 125.779 131.215 126.787H127.68ZM121.946 131.558H124.021V119.939H121.946V131.558ZM114.755 129.249C114.755 128.022 116.136 127.87 117.064 127.87H117.966C117.966 128.491 117.871 129.064 117.53 129.513C117.205 129.948 116.709 130.228 116.073 130.228C115.329 130.228 114.755 129.934 114.755 129.249ZM113.703 125.779C114.399 125.251 115.283 124.91 116.167 124.91C117.391 124.91 117.966 125.345 117.966 126.631H116.818C115.951 126.631 114.925 126.708 114.137 127.096C113.349 127.482 112.774 128.18 112.774 129.375C112.774 130.893 114.153 131.744 115.563 131.744C116.51 131.744 117.55 131.25 118.029 130.367H118.06C118.077 130.616 118.077 131.14 118.154 131.559H119.98C119.935 130.941 119.904 130.383 119.888 129.779C119.87 129.191 119.855 128.585 119.855 127.779V126.757C119.855 124.402 118.85 123.395 116.416 123.395C115.533 123.395 114.446 123.627 113.642 123.998L113.703 125.779ZM107.306 131.558H109.38V128.629C109.38 127.482 109.38 125.375 111.07 125.375C111.442 125.375 111.813 125.438 111.998 125.544V123.454C111.781 123.393 111.566 123.393 111.364 123.393C110.125 123.393 109.274 124.646 109.179 125.391H109.148V123.58H107.308V131.559L107.306 131.558ZM101.911 129.158C101.911 130.738 102.811 131.744 104.435 131.744C105.053 131.744 105.536 131.682 105.969 131.559L105.906 129.92C105.691 130.058 105.337 130.135 104.963 130.135C104.173 130.135 103.986 129.499 103.986 128.817V125.095H105.831V123.58H103.986V121.317L101.911 121.983V123.58H100.377V125.095H101.911V129.158ZM91.7603 131.558H93.8364V127.654C93.8364 126.63 94.1614 125.003 95.666 125.003C96.9976 125.003 97.0133 126.319 97.0133 127.294V131.556H99.0893V126.52C99.0893 124.721 98.268 123.39 96.3772 123.39C95.292 123.39 94.4078 123.746 93.7577 124.658H93.7245V123.575H91.7586V131.554L91.7603 131.558ZM89.5428 129.419C88.7704 129.854 87.9054 130.226 86.8954 130.226C85.6075 130.226 84.7075 129.495 84.6149 128.209H90.1317C90.1317 125.419 89.2946 123.392 86.3362 123.392C83.8547 123.392 82.6332 125.296 82.6332 127.606C82.6332 130.226 84.1658 131.743 86.801 131.743C87.9194 131.743 88.7844 131.526 89.541 131.108L89.5428 129.419ZM84.6166 126.785C84.7093 125.714 85.3017 124.908 86.462 124.908C87.6223 124.908 88.0924 125.777 88.1518 126.785H84.6166ZM75.0562 125.188H78.9303L74.8867 129.869V131.556H81.5183V129.946H77.4118L81.3786 125.281V123.577H75.0579V125.186L75.0562 125.188ZM70.13 131.556H72.2043V125.092H74.0181V123.577H72.2043V122.584C72.2043 121.964 72.4209 121.359 73.1182 121.359C73.5673 121.359 73.8312 121.53 74.0181 121.639L74.1894 119.921C73.784 119.827 73.1968 119.748 72.6708 119.748C71.0299 119.748 70.1317 120.863 70.1317 122.46V123.577H68.5975V125.092H70.1317L70.13 131.556ZM67.2292 123.577H65.1549V127.482C65.1549 128.505 64.8281 130.132 63.327 130.132C61.9937 130.132 61.9797 128.814 61.9797 127.839V123.579H59.902V128.615C59.902 130.411 60.725 131.743 62.6141 131.743C63.6993 131.743 64.601 131.248 65.237 130.472H65.2668V131.558H67.2309V123.579L67.2292 123.577ZM53.9221 131.556H55.9964V128.627C55.9964 127.481 55.9964 125.373 57.6844 125.373C58.0584 125.373 58.4289 125.436 58.6158 125.543V123.453C58.3974 123.392 58.1807 123.392 57.9797 123.392C56.7408 123.392 55.888 124.644 55.7954 125.389H55.7639V123.579H53.9221V131.556ZM48.5276 129.156C48.5276 130.736 49.4258 131.743 51.051 131.743C51.6713 131.743 52.1519 131.68 52.5853 131.558L52.5224 129.918C52.3074 130.056 51.9509 130.133 51.5787 130.133C50.7889 130.133 50.6001 129.497 50.6001 128.816V125.094H52.4472V123.579H50.6001V121.316L48.5276 121.981V123.579H46.9933V125.094H48.5276V129.156ZM40.0331 127.372C40.0331 126.179 40.6849 125.001 42.0322 125.001C43.397 125.001 44.0488 126.147 44.0488 127.372C44.0488 128.707 43.6294 130.132 42.0322 130.132C40.4525 130.132 40.0331 128.692 40.0331 127.372ZM37.868 127.62C37.868 129.915 39.3988 131.741 42.034 131.741C44.6849 131.741 46.2192 129.915 46.2192 127.62C46.2192 124.985 44.4088 123.392 42.034 123.392C39.6784 123.392 37.868 124.987 37.868 127.62ZM27.2677 131.556H29.342V123.468H29.3717L33.5115 131.556H36.1607V120.741H34.0882V128.828H34.055L29.9326 120.741H27.2695L27.2677 131.556Z" fill="#231F20"/>
<path d="M140.573 111.068C139.542 111.647 138.39 112.141 137.05 112.141C135.339 112.141 134.142 111.171 134.02 109.459H141.356C141.356 105.751 140.241 103.054 136.307 103.054C133.01 103.054 131.385 105.586 131.385 108.657C131.385 112.141 133.422 114.158 136.926 114.158C138.413 114.158 139.565 113.869 140.573 113.316V111.068ZM134.02 107.568C134.142 106.144 134.927 105.073 136.473 105.073C138.02 105.073 138.638 106.228 138.72 107.568H134.02ZM119.477 113.911H122.233V108.72C122.233 107.36 122.666 105.195 124.667 105.195C126.441 105.195 126.458 106.948 126.458 108.244V113.911H129.218V107.215C129.218 104.826 128.127 103.056 125.616 103.056C124.171 103.056 122.974 103.715 122.275 104.742H122.233V98.4602H119.477V113.911ZM117.454 103.406C116.692 103.18 115.888 103.056 114.775 103.056C111.46 103.056 109.648 105.485 109.648 108.555C109.648 111.792 111.395 114.16 114.878 114.16C116.01 114.16 116.835 114.055 117.639 113.81L117.517 111.523C117.045 111.731 116.176 112.017 115.395 112.017C113.457 112.017 112.531 110.511 112.531 108.555C112.531 106.556 113.62 105.195 115.33 105.195C116.176 105.195 116.714 105.363 117.205 105.588L117.454 103.406ZM107.668 103.444C106.804 103.261 105.959 103.056 104.662 103.056C102.495 103.056 100.498 104.064 100.498 106.35C100.498 110.184 105.3 108.762 105.3 110.845C105.3 111.874 104.183 112.143 103.482 112.143C102.537 112.143 101.63 111.876 100.765 111.442L100.601 113.705C101.609 113.973 102.68 114.16 103.731 114.16C105.978 114.16 108.181 113.172 108.181 110.701C108.181 106.867 103.381 107.939 103.381 106.249C103.381 105.342 104.267 105.074 105.01 105.074C106.02 105.074 106.637 105.239 107.481 105.529L107.666 103.448L107.668 103.444ZM95.5122 101.363H98.2715V98.7276H95.5122V101.363ZM95.5122 113.911H98.2715V103.302H95.5122V113.911ZM82.8604 113.911H85.6197V108.72C85.6197 107.36 86.0531 105.195 88.0539 105.195C89.8276 105.195 89.8486 106.948 89.8486 108.244V113.911H92.6044V107.215C92.6044 104.826 91.514 103.056 89.0011 103.056C87.5577 103.056 86.3816 103.528 85.5166 104.742H85.4782V103.302H82.8604V113.911ZM77.1968 101.363H79.9561V98.7276H77.1968V101.363ZM77.1968 113.911H79.9561V103.302H77.1968V113.911ZM66.3782 105.445H71.5297L66.1527 111.668V113.911H74.9705V111.773H69.5097L74.7853 105.567V103.302H66.3782V105.445ZM61.1672 101.363H63.9264V98.7276H61.1672V101.363ZM61.1672 113.911H63.9264V103.302H61.1672V113.911ZM55.584 113.911H58.2594V98.4602H55.5018V104.538H55.4599C54.6333 103.528 53.6687 103.056 52.2865 103.056C49.0326 103.056 47.8374 105.649 47.8374 108.576C47.8374 111.484 49.0326 114.16 52.2865 114.16C53.5848 114.16 54.719 113.747 55.5438 112.718H55.584V113.911ZM50.719 108.576C50.719 107.154 51.2135 105.197 53.0064 105.197C54.7801 105.197 55.4791 107.093 55.4791 108.576C55.4791 110.083 54.8832 112.019 53.0501 112.019C51.2327 112.019 50.719 110.041 50.719 108.576ZM45.5691 111.07C44.5399 111.648 43.3883 112.143 42.0445 112.143C40.3337 112.143 39.1384 111.173 39.0178 109.461H46.3485C46.3485 105.752 45.2389 103.056 41.3035 103.056C38.006 103.056 36.3791 105.588 36.3791 108.658C36.3791 112.143 38.4184 114.16 41.9221 114.16C43.4075 114.16 44.5591 113.871 45.5691 113.317V111.07ZM39.0178 107.57C39.1384 106.146 39.9248 105.074 41.4695 105.074C43.0143 105.074 43.6312 106.229 43.7133 107.57H39.0178ZM17.8576 113.913H20.6168V102.086L20.6588 102.046L24.5312 113.913H27.294L31.1681 102.046H31.2083V113.913H33.9676V99.5349H29.3542L25.9327 110.432H25.8925L22.4709 99.5349H17.8558L17.8576 113.913Z" fill="#231F20"/>
</g>
<defs>
<clipPath id="clip0_104_2">
<rect width="159" height="159" fill="white"/>
</clipPath>
</defs>
</svg>
