<svg xmlns="http://www.w3.org/2000/svg" width="259" height="47" viewBox="0 0 259 47">
    <g fill="none" fill-rule="evenodd">
        <path fill="#151616" d="M100.727 45.956h4.209c.912 0 1.807 0 2.609-.534a3.131 3.131 0 0 0 1.39-2.649c0-2.229-1.63-2.714-2.303-2.907.56-.21 1.953-.71 1.953-2.633 0-.92-.321-1.598-.817-2.083-.72-.71-1.504-.856-2.913-.856h-4.128v11.662zm1.552-10.338h2.305c.88 0 2.336 0 2.336 1.76 0 1.842-1.857 1.842-2.401 1.842h-2.24v-3.602zm0 4.992h2.801c1.408 0 2.208.856 2.208 2.019 0 1.34-1.008 2.02-2.272 2.02h-2.737v-4.04zM117 45.956c-.113-.824-.13-1.907-.13-2.036l.066-3.876c0-.37-.017-.759-.272-1.244-.433-.824-1.68-1.195-2.85-1.195-.848 0-1.984.193-2.592.872-.464.55-.512 1.114-.56 1.535h1.504c.017-.324.096-1.373 1.617-1.373.431 0 1.088.13 1.392.532.288.356.288.793.288 1.793a13.854 13.854 0 0 0-1.087-.047c-.64 0-1.92.047-2.786.532-1.184.695-1.408 1.729-1.408 2.375 0 1.34.993 2.39 2.833 2.39.672 0 1.76-.13 2.48-1.47 0 .42.032.807.144 1.212h1.36zm-1.537-3.941c-.032 1.13-.047 1.582-.383 2.131-.368.566-.945.873-1.712.873-1.346 0-1.665-.888-1.665-1.405 0-1.648 2.288-1.648 2.896-1.648.368 0 .592.017.864.049zm2.95 1.534c-.017 1.955 1.503 2.633 3.136 2.633.832 0 1.68-.114 2.384-.549.593-.372 1.089-1.148 1.089-2.052 0-.517-.16-1.081-.608-1.502-.48-.452-.961-.581-3.186-1.115-.415-.113-1.135-.29-1.135-1.032 0-1.164 1.408-1.164 1.633-1.164.544 0 1.6.096 1.552 1.325h1.536c0-.34 0-.727-.209-1.18-.48-.969-1.888-1.26-2.896-1.26-1.857 0-3.137.97-3.137 2.455 0 1.697 1.408 2.036 3.09 2.424 1.2.273 1.759.42 1.759 1.211 0 .274-.096.55-.256.76-.32.402-.784.516-1.408.516-1.456 0-1.777-.856-1.76-1.47h-1.585zm14.955-1.373c.032-1.325.11-4.539-3.49-4.539-.463 0-1.424.049-2.192.598-1.264.888-1.585 2.212-1.585 3.812 0 2.568 1.202 4.15 3.73 4.15 1.616 0 2.416-.678 2.767-1.08.577-.632.64-1.293.69-1.697h-1.505c-.129 1.163-.912 1.68-1.888 1.68-1.648 0-2.337-1.244-2.305-2.924h5.778zm-5.714-1.066c.032-1.793 1.216-2.39 2.192-2.39 1.857 0 2.001 1.615 1.985 2.39h-4.177zm7.408 4.846h1.503V34.31h-1.503v11.646zM100.615 29.07h1.6v-5.186h1.873c2.08 0 2.88-.387 3.488-1.002.624-.63.912-1.388.912-2.277 0-.872-.272-1.664-.849-2.261-.783-.856-1.744-.937-3.152-.937h-3.872V29.07zm1.6-10.355h2.24c.832 0 2.337 0 2.337 1.826 0 1.905-1.616 1.987-2.672 1.987h-1.906v-3.813zm6.919 7.947c-.015 1.955 1.505 2.634 3.137 2.634.833 0 1.68-.114 2.384-.55.593-.372 1.088-1.147 1.088-2.052 0-.517-.16-1.08-.608-1.502-.48-.452-.96-.58-3.184-1.115-.416-.112-1.135-.29-1.135-1.032 0-1.163 1.408-1.163 1.631-1.163.544 0 1.601.096 1.553 1.324h1.535c0-.339 0-.727-.207-1.18-.48-.968-1.888-1.259-2.896-1.259-1.857 0-3.137.969-3.137 2.454 0 1.697 1.408 2.036 3.088 2.424 1.2.274 1.761.42 1.761 1.212 0 .273-.096.549-.257.759-.32.402-.783.516-1.408.516-1.457 0-1.776-.856-1.76-1.47h-1.585zm15.439-5.702h-1.633l-2.56 6.397-2.512-6.397h-1.697l3.345 8.077-1.217 3.1h1.553l1.152-3.02 3.569-8.157zm7.08 2.6c-.031-.451-.08-1.114-.671-1.807-.736-.89-1.936-1.002-2.465-1.002-1.6 0-3.648 1.002-3.648 4.377 0 1.68.48 2.536.96 3.102.848.936 2.096 1.049 2.64 1.049 1.985 0 3.153-1.324 3.249-2.907h-1.52c-.033.79-.465 1.76-1.745 1.76-1.6 0-2-1.55-2-3.214 0-.614 0-3.053 2.08-3.053 1.456 0 1.568 1.324 1.6 1.695h1.52zm1.492 5.51h1.52v-4.298c0-.5 0-1.259.256-1.712.208-.388.768-1.082 1.889-1.082 1.728 0 1.728 1.567 1.728 2.294v4.797h1.536v-5.072c0-1.179-.111-1.566-.272-1.89-.464-.985-1.68-1.291-2.529-1.291-1.119 0-2.112.483-2.607 1.34v-4.732h-1.52v11.645zm8.887-9.968h1.808V17.44h-1.808v1.663zm.162 9.967h1.503V20.96h-1.503v8.11zm9.963 0c-.112-.824-.13-1.907-.13-2.036l.065-3.876c0-.37-.015-.758-.27-1.243-.434-.824-1.682-1.195-2.85-1.195-.849 0-1.984.193-2.593.87-.463.551-.512 1.115-.56 1.537h1.505c.016-.324.095-1.373 1.616-1.373.432 0 1.089.129 1.393.532.287.356.287.792.287 1.792a13.86 13.86 0 0 0-1.089-.047c-.64 0-1.92.047-2.784.532-1.184.695-1.408 1.73-1.408 2.375 0 1.34.992 2.39 2.833 2.39.672 0 1.76-.129 2.48-1.47 0 .42.032.808.144 1.212h1.361zm-1.537-3.941c-.032 1.131-.047 1.583-.383 2.132-.37.565-.944.872-1.714.872-1.344 0-1.663-.887-1.663-1.404 0-1.649 2.288-1.649 2.896-1.649.368 0 .592.017.864.049zm2.509-3.085h1.424v5.411c0 1.325.657 1.728 2.033 1.728a7.52 7.52 0 0 0 1.249-.096v-1.18c-.128.032-.417.08-.721.08-1.072 0-1.072-.678-1.072-1.082v-4.861h1.793v-1.115h-1.793v-2.18l-1.489.484v1.696h-1.424v1.115zm6.048 7.026h1.52v-4.312c0-1.39.416-2.456 2.193-2.456.175 0 .32 0 .432.016.111.016.208.033.287.065v-1.485a4.66 4.66 0 0 0-1.04.031c-.672.098-1.633.469-1.92 1.6l-.032-1.568h-1.52c.048.534.08 1.098.08 1.649v6.46zm5.472-9.967h1.808V17.44h-1.808v1.663zm.16 9.967h1.504V20.96h-1.504v8.11zm3.114-2.407c-.017 1.955 1.504 2.634 3.135 2.634.833 0 1.682-.114 2.386-.55.591-.372 1.087-1.147 1.087-2.052 0-.517-.16-1.08-.608-1.502-.48-.452-.96-.58-3.184-1.115-.417-.112-1.136-.29-1.136-1.032 0-1.163 1.408-1.163 1.631-1.163.545 0 1.602.096 1.553 1.324h1.537c0-.339 0-.727-.208-1.18-.48-.968-1.889-1.259-2.897-1.259-1.856 0-3.136.969-3.136 2.454 0 1.697 1.408 2.036 3.088 2.424 1.2.274 1.76.42 1.76 1.212 0 .273-.095.549-.257.759-.319.402-.783.516-1.408.516-1.456 0-1.775-.856-1.759-1.47h-1.584zm14.422-3.102c-.032-.451-.081-1.114-.673-1.807-.737-.89-1.937-1.002-2.464-1.002-1.601 0-3.65 1.002-3.65 4.377 0 1.68.481 2.536.962 3.102.847.936 2.095 1.049 2.64 1.049 1.983 0 3.153-1.324 3.248-2.907h-1.52c-.032.79-.464 1.76-1.744 1.76-1.601 0-2.001-1.55-2.001-3.214 0-.614 0-3.053 2.08-3.053 1.457 0 1.57 1.324 1.601 1.695h1.52zm1.491 5.51h1.52v-4.298c0-.5 0-1.259.256-1.712.208-.388.768-1.082 1.888-1.082 1.728 0 1.728 1.567 1.728 2.294v4.797h1.537v-5.072c0-1.179-.113-1.566-.272-1.89-.464-.985-1.68-1.291-2.529-1.291-1.12 0-2.112.483-2.609 1.34v-4.732h-1.519v11.645zm15.878-3.78c.032-1.325.113-4.54-3.488-4.54-.463 0-1.424.05-2.192.598-1.264.888-1.584 2.212-1.584 3.812 0 2.568 1.2 4.15 3.728 4.15 1.616 0 2.417-.677 2.769-1.08.576-.631.64-1.293.688-1.697h-1.505c-.128 1.163-.912 1.68-1.888 1.68-1.649 0-2.336-1.244-2.304-2.924h5.776zm-5.712-1.067c.032-1.792 1.216-2.39 2.192-2.39 1.857 0 2 1.615 1.985 2.39h-4.177zm11.746 4.846h1.584v-6.187l5.33 6.187h2.239l-5.728-6.445 5.168-5.217h-2.192l-4.817 5.104v-5.104h-1.584V29.07zm10.272 0h1.504V17.424h-1.504v11.645zm3.521-9.967h1.808V17.44h-1.808v1.663zm.16 9.967h1.504V20.96H219.7v8.11zm3.695 0h1.503v-4.668c0-1.631 1.008-2.423 2.097-2.423.513 0 1.04.178 1.425.55.368.371.432.856.432 1.388v5.153h1.535V23.56c0-2.487-2.19-2.76-2.911-2.76-1.825 0-2.401 1.13-2.578 1.47l-.015-1.31h-1.504l.016.937v7.172zm8.899-9.967h1.808V17.44h-1.808v1.663zm.16 9.967h1.503V20.96h-1.503v8.11zm3.627 0h1.489v-4.377l3.216 4.377h1.969l-3.6-4.668 3.391-3.44h-1.967l-3.009 3.311v-6.945h-1.489v11.742zm14.031-3.78c.032-1.324.113-4.538-3.488-4.538-.463 0-1.424.048-2.192.597-1.264.888-1.584 2.212-1.584 3.812 0 2.568 1.2 4.15 3.728 4.15 1.616 0 2.417-.677 2.768-1.08.577-.631.64-1.293.69-1.697h-1.506c-.128 1.163-.912 1.68-1.888 1.68-1.649 0-2.336-1.244-2.304-2.924h5.776zm-5.712-1.066c.032-1.792 1.216-2.39 2.192-2.39 1.857 0 2.001 1.615 1.985 2.39H244.4zm7.405 4.846h1.503v-4.668c0-1.631 1.008-2.423 2.097-2.423.512 0 1.04.178 1.425.55.368.371.432.856.432 1.388v5.153h1.535V23.56c0-2.487-2.192-2.76-2.911-2.76-1.825 0-2.401 1.13-2.578 1.47l-.015-1.31h-1.505l.017.937v7.172zM100.695.52v7.107c0 1.746.32 2.424.672 2.94 1.072 1.552 2.992 1.857 4.08 1.857.832 0 2.593-.176 3.729-1.615.929-1.163.944-2.47.944-3.101V.52h-1.552v7.156c0 .84 0 3.311-3.12 3.311-.8 0-1.92-.178-2.641-1.146-.24-.34-.513-.856-.513-2.1V.521h-1.6zm11.618 11.662h1.503V7.515c0-1.632 1.01-2.424 2.097-2.424.513 0 1.04.178 1.425.55.368.371.432.856.432 1.389v5.152h1.535V6.674c0-2.488-2.19-2.761-2.911-2.761-1.825 0-2.401 1.13-2.578 1.47l-.015-1.31h-1.504l.016.937v7.172zm8.899-9.966h1.808V.552h-1.808v1.664zm.16 9.966h1.503V4.074h-1.503v8.108zm6.051 0h1.52l3.52-8.108H130.8l-2.496 6.428-2.56-6.428h-1.682l3.362 8.108zm12.68-3.78c.031-1.324.11-4.538-3.49-4.538-.464 0-1.425.049-2.193.598-1.263.887-1.584 2.212-1.584 3.811 0 2.568 1.201 4.151 3.73 4.151 1.616 0 2.416-.678 2.767-1.08.576-.632.64-1.293.689-1.698h-1.504c-.13 1.163-.912 1.68-1.888 1.68-1.649 0-2.337-1.243-2.305-2.923h5.777zm-5.715-1.065c.032-1.793 1.217-2.39 2.193-2.39 1.856 0 2 1.614 1.984 2.39h-4.177zm7.425 4.845h1.52V7.87c0-1.39.415-2.455 2.191-2.455.177 0 .321 0 .434.015.11.017.206.034.287.065V4.01a4.66 4.66 0 0 0-1.04.032c-.672.097-1.633.468-1.92 1.6l-.032-1.568h-1.52c.048.533.08 1.1.08 1.648v6.46zm5.166-2.406c-.015 1.955 1.504 2.633 3.137 2.633.832 0 1.68-.114 2.384-.549.593-.372 1.089-1.148 1.089-2.053 0-.516-.16-1.08-.608-1.502-.48-.451-.961-.58-3.186-1.114-.415-.113-1.136-.29-1.136-1.033 0-1.163 1.408-1.163 1.633-1.163.545 0 1.6.096 1.553 1.325h1.536c0-.34 0-.727-.209-1.18-.48-.969-1.888-1.26-2.896-1.26-1.857 0-3.137.97-3.137 2.455 0 1.697 1.41 2.036 3.09 2.423 1.2.274 1.759.42 1.759 1.212 0 .274-.096.55-.256.759-.32.404-.784.517-1.408.517-1.456 0-1.776-.856-1.76-1.47h-1.585zm8.038-7.56h1.807V.552h-1.807v1.664zm.16 9.966h1.503V4.074h-1.504v8.108zm2.681-7.026h1.425v5.412c0 1.324.655 1.727 2.031 1.727.545 0 .976-.047 1.249-.096v-1.18a3.3 3.3 0 0 1-.72.08c-1.073 0-1.073-.677-1.073-1.082v-4.86h1.793V4.041h-1.793v-2.18l-1.487.483v1.697h-1.425v1.114zm12.468 7.026c-.112-.824-.128-1.906-.128-2.035l.064-3.876c0-.371-.016-.759-.272-1.244-.432-.824-1.68-1.195-2.85-1.195-.846 0-1.983.193-2.592.871-.463.55-.51 1.115-.56 1.536h1.505c.016-.324.095-1.373 1.616-1.373.432 0 1.088.13 1.393.532.287.356.287.792.287 1.793a13.854 13.854 0 0 0-1.087-.047c-.64 0-1.92.047-2.786.532-1.183.695-1.408 1.729-1.408 2.375 0 1.34.993 2.39 2.833 2.39.672 0 1.76-.13 2.48-1.47 0 .42.033.807.144 1.211h1.361zm-1.537-3.94c-.032 1.13-.047 1.582-.383 2.131-.368.566-.944.873-1.712.873-1.344 0-1.665-.888-1.665-1.405 0-1.648 2.288-1.648 2.896-1.648.368 0 .593.016.864.048zm-3.952-6.026h1.472V.568h-1.472v1.648zm3.024 0h1.489V.568h-1.489v1.648zm4.492 9.966h1.52V7.87c0-1.39.417-2.455 2.193-2.455.176 0 .32 0 .432.015.112.017.208.034.289.065V4.01a4.657 4.657 0 0 0-1.04.032c-.672.097-1.633.468-1.92 1.6l-.033-1.568h-1.52c.047.533.079 1.1.079 1.648v6.46zm12.375-3.78c.032-1.324.113-4.538-3.488-4.538-.464 0-1.425.049-2.192.598-1.265.887-1.585 2.212-1.585 3.811 0 2.568 1.2 4.151 3.728 4.151 1.617 0 2.416-.678 2.77-1.08.575-.632.64-1.293.688-1.698h-1.505c-.128 1.163-.913 1.68-1.889 1.68-1.648 0-2.335-1.243-2.303-2.923h5.776zm-5.712-1.065c.032-1.793 1.216-2.39 2.192-2.39 1.857 0 2 1.614 1.984 2.39h-4.176z"/>
        <path fill="#F4634C" d="M73.597 30.773l9.211-13.366h-9.382L65.21 29.742V17.407h-8.108v28.548h8.108V32.301l9.097 13.654h9.679l-10.39-15.182zm-19.122-2.875c0-6.317-4.373-10.491-11.168-10.491h-13.27v28.547h8.166v-7.172h4.605c7.069 0 11.667-3.662 11.667-10.884zm-8.121.096c0 3.207-2.386 3.926-4.826 3.926h-3.325v-7.703h3.563c2.39 0 4.588.8 4.588 3.777zm-20.066 6.162v-16.75h-8.352v14.7c0 3.913-.7 7.025-4.725 7.025-4.097 0-4.86-3.104-4.86-7.026V17.407H.001v16.75c0 7.345 4.073 12.496 13.165 12.496 9.091 0 13.122-5.19 13.122-12.497z"/>
    </g>
</svg>
